<?xml version="1.0" encoding="UTF-8"?>
<svg id="Layer_2" data-name="Layer 2" xmlns="http://www.w3.org/2000/svg" xmlns:xlink="http://www.w3.org/1999/xlink" viewBox="0 0 187.94 61.59">
  <defs>
    <style>
      .cls-1 {
        font-family: InstrumentSerif-Italic, 'Instrument Serif';
        font-style: italic;
      }

      .cls-1, .cls-2 {
        font-size: 29.65px;
      }

      .cls-3 {
        fill: #fff;
      }

      .cls-2 {
        font-family: Inter-Medium, Inter;
        font-weight: 500;
      }

      .cls-4 {
        fill: url(#linear-gradient);
      }
    </style>
    <linearGradient id="linear-gradient" x1="3.74" y1="8.03" x2="43.34" y2="45.13" gradientUnits="userSpaceOnUse">
      <stop offset="0" stop-color="#eef255"/>
      <stop offset=".58" stop-color="#89edbd"/>
      <stop offset="1" stop-color="#5cabf8"/>
    </linearGradient>
  </defs>
  <g id="Layer_1-2" data-name="Layer 1">
    <g>
      <g>
        <text class="cls-2" transform="translate(60.31 25.61)"><tspan x="0" y="0">Owesome</tspan></text>
        <text class="cls-1" transform="translate(57.51 52.73)"><tspan x="0" y="0">Suite.</tspan></text>
      </g>
      <path class="cls-4" d="M25.18,2.93C11.27,2.93,0,14.23,0,28.12c0,1.84.19,3.64.58,5.35,2.09,9.63,9.66,17.2,19.29,19.26,1.71.39,3.51.58,5.31.58,13.88,0,25.18-11.3,25.18-25.18S39.07,2.93,25.18,2.93Z"/>
      <polygon class="cls-3" points="36.21 39.14 28.06 39.14 28.06 25.24 14.16 25.24 14.16 17.09 36.21 17.09 36.21 39.14"/>
      <rect class="cls-3" x="14.16" y="30.55" width="8.59" height="8.59"/>
    </g>
  </g>
</svg>